<?xml version="1.0" encoding="UTF-8"?>
<svg xmlns="http://www.w3.org/2000/svg" xmlns:xlink="http://www.w3.org/1999/xlink" width="89.86pt" height="23.75pt" viewBox="0 0 89.86 23.75" version="1.1">
<defs>
<clipPath id="clip1">
  <path d="M 0 0 L 89.859375 0 L 89.859375 23.75 L 0 23.75 Z M 0 0 "/>
</clipPath>
</defs>
<g id="surface1">
<g clip-path="url(#clip1)" clip-rule="nonzero">
<path style=" stroke:none;fill-rule:nonzero;fill:rgb(0%,65.097046%,31.37207%);fill-opacity:1;" d="M 77.078125 0.0117188 C 77.167969 0.136719 77.167969 -0.0273438 77.078125 0.0117188 C 91.171875 0.136719 90.417969 12.492188 89.34375 15.832031 C 87.859375 19.984375 83.949219 23.796875 76.101563 23.75 L 12.683594 23.75 C 6.097656 23.566406 1.578125 19.914063 0.550781 15.691406 C -1.144531 10.953125 0.628906 0.476563 12.125 0.015625 L 16.207031 0.015625 "/>
</g>
<path style=" stroke:none;fill-rule:nonzero;fill:rgb(100%,100%,100%);fill-opacity:1;" d="M 39.472656 7.652344 C 40.882813 10.195313 39.9375 13.460938 38.175781 15.554688 C 36.171875 18.09375 32.515625 18.59375 29.722656 17.925781 C 27.878906 17.363281 27 16.09375 26.664063 14.664063 C 26.257813 11.808594 27.328125 9.0625 29.367188 7.0625 C 31.183594 5.316406 33.886719 4.980469 36.371094 5.441406 C 37.542969 5.757813 38.769531 6.46875 39.472656 7.652344 "/>
<path style=" stroke:none;fill-rule:nonzero;fill:rgb(100%,100%,100%);fill-opacity:1;" d="M 18.609375 17.355469 C 17.652344 17.789063 16.902344 17.914063 15.1875 17.929688 L 8.222656 17.929688 L 10.761719 5.804688 L 18.199219 5.808594 C 21.074219 5.808594 21.863281 8.035156 20.9375 9.84375 C 20.46875 10.761719 19.699219 11.207031 19.042969 11.472656 C 19.035156 11.480469 19.0625 11.460938 19.042969 11.457031 C 19.035156 11.511719 19.082031 11.488281 19.042969 11.457031 C 19.035156 11.464844 19.035156 11.488281 19.042969 11.457031 C 21.882813 12.601563 21.058594 16.253906 18.609375 17.355469 "/>
<path style=" stroke:none;fill-rule:nonzero;fill:rgb(100%,100%,100%);fill-opacity:1;" d="M 24.476563 17.9375 L 21.082031 17.9375 L 23.734375 5.875 L 27.074219 5.875 Z M 24.476563 17.9375 "/>
<path style=" stroke:none;fill-rule:nonzero;fill:rgb(100%,100%,100%);fill-opacity:1;" d="M 54.222656 5.785156 C 60.269531 5.691406 58.578125 11.488281 55.214844 12.417969 C 55.214844 12.441406 55.21875 12.4375 55.214844 12.417969 C 57.210938 13.039063 57.046875 15.835938 56.910156 17.941406 L 52.988281 17.945313 C 53.023438 17.296875 54.847656 12.972656 52.066406 13.089844 L 49.339844 13.089844 C 49.34375 13.097656 48.660156 16.320313 48.304688 17.933594 L 44.988281 17.933594 C 45.003906 17.941406 45.984375 13.097656 45.992188 13.089844 L 42.429688 13.082031 L 42.957031 10.660156 L 46.5 10.65625 L 47.625 5.785156 L 54.222656 5.785156 "/>
<path style=" stroke:none;fill-rule:nonzero;fill:rgb(0%,65.097046%,31.37207%);fill-opacity:1;" d="M 16.46875 8.0625 C 18.808594 8.0625 17.804688 10.433594 16.554688 10.480469 C 15.605469 10.480469 13.019531 10.480469 13.03125 10.492188 L 13.519531 8.058594 C 13.527344 8.066406 16.46875 8.0625 16.46875 8.0625 "/>
<path style=" stroke:none;fill-rule:nonzero;fill:rgb(0%,65.097046%,31.37207%);fill-opacity:1;" d="M 35.933594 8.664063 C 37.160156 9.84375 36.34375 12.347656 35.527344 13.71875 C 34.636719 15.101563 33.660156 15.40625 33.21875 15.519531 C 31.851563 15.777344 30.984375 15.332031 30.617188 14.664063 C 29.953125 13.621094 30.390625 10.480469 31.78125 9.074219 C 32.742188 7.902344 34.820313 7.609375 35.933594 8.664063 "/>
<path style=" stroke:none;fill-rule:nonzero;fill:rgb(0%,65.097046%,31.37207%);fill-opacity:1;" d="M 53.085938 8.101563 C 55.355469 8.242188 54.894531 10.605469 53.246094 10.675781 C 53.273438 10.722656 49.855469 10.667969 49.855469 10.691406 L 50.433594 8.105469 C 50.433594 8.105469 53.085938 8.101563 53.085938 8.101563 "/>
<path style=" stroke:none;fill-rule:nonzero;fill:rgb(0%,65.097046%,31.37207%);fill-opacity:1;" d="M 15.511719 12.695313 C 18.582031 12.601563 18.234375 15.6875 15.765625 15.511719 C 15.765625 15.507813 11.953125 15.511719 11.941406 15.511719 C 11.953125 15.5 12.566406 12.695313 12.566406 12.695313 "/>
<path style=" stroke:none;fill-rule:nonzero;fill:rgb(100%,100%,100%);fill-opacity:1;" d="M 69.167969 17.90625 L 71.746094 5.84375 L 78.070313 5.84375 C 81.132813 6.054688 82.261719 7.878906 82.632813 9.535156 C 83.140625 12.296875 82.664063 17.792969 75.710938 17.90625 C 75.710938 17.894531 75.6875 17.90625 75.710938 17.90625 "/>
<path style=" stroke:none;fill-rule:nonzero;fill:rgb(100%,100%,100%);fill-opacity:1;" d="M 69.792969 17.90625 L 66.4375 17.90625 C 66.433594 17.914063 65.96875 15.867188 65.941406 15.84375 L 60.488281 15.84375 C 60.5 15.867188 59.234375 17.910156 59.234375 17.941406 L 56.070313 17.941406 L 63.355469 5.828125 C 63.359375 5.835938 67.1875 5.824219 67.203125 5.828125 C 67.203125 5.820313 69.792969 17.90625 69.792969 17.90625 "/>
<path style=" stroke:none;fill-rule:nonzero;fill:rgb(0%,65.097046%,31.37207%);fill-opacity:1;" d="M 76.777344 8.082031 C 80.4375 8.082031 80.34375 15.613281 74.964844 15.683594 C 74.96875 15.683594 72.984375 15.683594 72.984375 15.683594 L 74.597656 8.085938 C 74.609375 8.089844 76.777344 8.082031 76.777344 8.082031 "/>
<path style=" stroke:none;fill-rule:nonzero;fill:rgb(0%,65.097046%,31.37207%);fill-opacity:1;" d="M 61.941406 13.460938 L 64.511719 9.054688 L 65.421875 13.460938 "/>
</g>
</svg>
