<?xml version="1.0" encoding="UTF-8" standalone="no"?>
<!-- Created with Inkscape (http://www.inkscape.org/) -->

<svg
   xmlns:dc="http://purl.org/dc/elements/1.1/"
   xmlns:cc="http://creativecommons.org/ns#"
   xmlns:rdf="http://www.w3.org/1999/02/22-rdf-syntax-ns#"
   xmlns:svg="http://www.w3.org/2000/svg"
   xmlns="http://www.w3.org/2000/svg"
   xmlns:xlink="http://www.w3.org/1999/xlink"
   version="1.1"
   width="800"
   height="135"
   id="svg2">
  <defs
     id="defs4">
    <linearGradient
       id="linearGradient18913">
      <stop
         id="stop18915"
         style="stop-color:#f6f0be;stop-opacity:1"
         offset="0" />
      <stop
         id="stop18917"
         style="stop-color:#997d5a;stop-opacity:1"
         offset="1" />
    </linearGradient>
    <linearGradient
       x1="793.1709"
       y1="188.21649"
       x2="803.15387"
       y2="188.21649"
       id="linearGradient11037"
       gradientUnits="userSpaceOnUse">
      <stop
         id="stop11039"
         style="stop-color:#d0c45a;stop-opacity:1"
         offset="0" />
      <stop
         id="stop11041"
         style="stop-color:#f6f3bd;stop-opacity:1"
         offset="1" />
    </linearGradient>
    <linearGradient
       x1="793.1709"
       y1="188.21649"
       x2="803.15387"
       y2="188.21649"
       id="linearGradient18525"
       xlink:href="#linearGradient11037"
       gradientUnits="userSpaceOnUse" />
    <linearGradient
       x1="-34.32552"
       y1="-1.175"
       x2="-14.638905"
       y2="-1.175"
       id="linearGradient18919"
       xlink:href="#linearGradient18913"
       gradientUnits="userSpaceOnUse"
       spreadMethod="reflect" />
    <clipPath
       id="clipPath5535">
      <path
         d="m 0,32.457 779.528,0 0,59.764 L 0,92.221 0,32.457 z"
         id="path5537" />
    </clipPath>
    <clipPath
       id="clipPath5459">
      <path
         d="m 0,32.421 0.567,0 0,59.764 -0.567,0 0,-59.764 z"
         id="path5461" />
    </clipPath>
  </defs>
  <metadata
     id="metadata7">
    <rdf:RDF>
      <cc:Work
         rdf:about="">
        <dc:format>image/svg+xml</dc:format>
        <dc:type
           rdf:resource="http://purl.org/dc/dcmitype/StillImage" />
        <dc:title></dc:title>
      </cc:Work>
    </rdf:RDF>
  </metadata>
  <g
     transform="translate(0,-917.36217)"
     id="layer1">
    <g
       transform="matrix(2.8286938,0,0,-2.8286938,-529.53006,611.39476)"
       id="g5455">
      <g
         clip-path="url(#clipPath5459)"
         id="g5457">
        <g
           transform="matrix(1.0013123,0,0,-1,-489.6059,68.360657)"
           id="g5463">
          <path
             d="m 0,0 c 0,-0.65 0.528,-1.184 1.18,-1.184 l 1.04,0 c 0.651,0 1.183,0.534 1.183,1.184 l 0,4.111 L 0,4.111 0,0 z m -0.861,-4.525 c -2.348,0 -4.258,1.91 -4.258,4.261 l 0,11.358 c 0,2.347 1.91,4.259 4.258,4.259 l 5.15,0 c 2.349,0 4.26,-1.912 4.26,-4.259 l 0,-1.668 -5.146,0 0,1.277 c 0,0.652 -0.532,1.184 -1.183,1.184 l -1.04,0 C 0.528,11.887 0,11.355 0,10.703 l 0,-3.924 8.549,0 0,-7.043 c 0,-2.351 -1.911,-4.261 -4.26,-4.261 l -5.15,0 z"
             id="path5465"
             style="fill:#ffffff;fill-opacity:1;fill-rule:evenodd;stroke:none" />
        </g>
        <g
           transform="matrix(1.0013123,0,0,-1,-473.8102,68.360657)"
           id="g5467">
          <path
             d="m 0,0 c 0,-0.65 0.53,-1.184 1.182,-1.184 l 1.04,0 c 0.652,0 1.182,0.534 1.182,1.184 l 0,4.111 L 0,4.111 0,0 z m -0.859,-4.525 c -2.347,0 -4.259,1.91 -4.259,4.261 l 0,11.358 c 0,2.347 1.912,4.259 4.259,4.259 l 5.149,0 c 2.35,0 4.26,-1.912 4.26,-4.259 l 0,-1.668 -5.146,0 0,1.277 c 0,0.652 -0.53,1.184 -1.182,1.184 l -1.04,0 C 0.53,11.887 0,11.355 0,10.703 l 0,-3.924 8.55,0 0,-7.043 c 0,-2.351 -1.91,-4.261 -4.26,-4.261 l -5.149,0 z"
             id="path5469"
             style="fill:#ffffff;fill-opacity:1;fill-rule:evenodd;stroke:none" />
        </g>
        <g
           transform="matrix(1.0013123,0,0,-1,-347.15219,68.360657)"
           id="g5471">
          <path
             d="m 0,0 c 0,-0.65 0.529,-1.184 1.182,-1.184 l 1.041,0 c 0.652,0 1.181,0.534 1.181,1.184 l 0,4.111 L 0,4.111 0,0 z m -0.858,-4.525 c -2.349,0 -4.255,1.91 -4.255,4.261 l 0,11.358 c 0,2.347 1.906,4.259 4.255,4.259 l 5.151,0 c 2.346,0 4.258,-1.912 4.258,-4.259 l 0,-1.668 -5.147,0 0,1.277 c 0,0.652 -0.529,1.184 -1.181,1.184 l -1.041,0 C 0.529,11.887 0,11.355 0,10.703 l 0,-3.924 8.551,0 0,-7.043 c 0,-2.351 -1.912,-4.261 -4.258,-4.261 l -5.151,0 z"
             id="path5473"
             style="fill:#ffffff;fill-opacity:1;fill-rule:evenodd;stroke:none" />
        </g>
        <g
           transform="matrix(1.0013123,0,0,-1,-503.66231,62.321548)"
           id="g5475">
          <path
             d="m 0,0 c 0.719,0 1.304,-0.588 1.304,-1.309 l 0,-10.498 c 0,-0.722 -0.585,-1.308 -1.304,-1.308 l -1.954,0.004 0,13.107 L 0,0 z m -1.954,2.83 0,6.479 -5.828,0 0,-25.768 9.953,0 c 2.608,0 4.724,2.113 4.724,4.723 l 0,9.84 c 0,2.609 -2.116,4.724 -4.723,4.724 L -1.954,2.83 z"
             id="path5477"
             style="fill:#ffffff;fill-opacity:1;fill-rule:evenodd;stroke:none" />
        </g>
        <g
           transform="matrix(1.0013123,0,0,-1,-463.04408,78.774658)"
           id="g5479">
          <path
             d="m 0,0 0,25.768 5.342,0 0,-9.17 0.14,-0.004 3.611,9.174 5.729,0 -4.24,-10.932 0,-0.248 3.837,-8.699 -5.634,0 -3.303,7.851 -0.14,0 L 5.342,0 0,0 z"
             id="path5481"
             style="fill:#ffffff;fill-opacity:1;fill-rule:nonzero;stroke:none" />
        </g>
        <g
           transform="matrix(1.0013123,0,0,-1,-392.26332,69.573563)"
           id="g5483">
          <path
             d="m 0,0 c 0.653,0 1.185,0.531 1.185,1.189 l 0,10.567 c 0,0.656 -0.532,1.187 -1.185,1.187 l -1.148,0 c -0.654,0 -1.184,-0.531 -1.184,-1.187 l 0,-10.567 C -2.332,0.531 -1.802,0 -1.148,0 L 0,0 z m -3.166,-3.312 4.911,0 c 2.483,0 4.493,2.005 4.493,4.482 l 0,10.912 c 0,2.475 -2.01,4.484 -4.493,4.484 l -4.911,0 c -2.483,0 -4.498,-2.009 -4.498,-4.484 l 0,-10.912 c 0,-2.477 2.015,-4.482 4.498,-4.482"
             id="path5485"
             style="fill:#ffffff;fill-opacity:1;fill-rule:evenodd;stroke:none" />
        </g>
        <g
           transform="matrix(1.0013123,0,0,-1,-328.01611,73.509048)"
           id="g5487">
          <path
             d="m 0,0 c -1.127,0 -2.199,0.436 -3.021,1.225 l -0.352,0 0,-0.602 -5.139,0 0,19.879 5.17,0 -0.007,-15.254 c 0,-0.717 0.546,-1.303 1.212,-1.303 l 0.397,0 c 0.668,0 1.213,0.586 1.213,1.303 l 0,15.254 5.32,0 0,-16.121 C 4.793,1.965 2.83,0 0.416,0 L 0,0 z"
             id="path5489"
             style="fill:#ffffff;fill-opacity:1;fill-rule:evenodd;stroke:none" />
        </g>
        <g
           transform="matrix(1.0013123,0,0,-1,-305.7269,72.885956)"
           id="g5491">
          <path
             d="M 0,0 0,16.123 C 0,18.539 1.963,20.5 4.379,20.5 l 0.416,0 c 1.174,0 2.234,-0.467 3.019,-1.223 l 0.354,0 0,0.602 5.139,0 0,-19.879 -5.17,0 0.004,15.25 c 0,0.723 -0.545,1.305 -1.211,1.305 l -0.395,0 c -0.672,0 -1.213,-0.582 -1.213,-1.305 L 5.322,0 0,0 z"
             id="path5493"
             style="fill:#ffffff;fill-opacity:1;fill-rule:evenodd;stroke:none" />
        </g>
        <g
           transform="matrix(1.0013123,0,0,-1,-407.44321,78.774658)"
           id="g5495">
          <path
             d="M 0,0 5.391,0 5.387,25.768 0,25.768 0,0 z"
             id="path5497"
             style="fill:#ffffff;fill-opacity:1;fill-rule:nonzero;stroke:none" />
        </g>
        <g
           transform="matrix(1.0013123,0,0,-1,-409.66612,61.182953)"
           id="g5499">
          <path
             d="m 0,0 -0.011,4.033 c 0,2.287 -1.853,4.143 -4.142,4.143 l -6.412,0 c -2.288,0 -4.141,-1.856 -4.141,-4.143 l 0,-17.478 c 0,-2.289 1.853,-4.145 4.141,-4.145 l 6.412,0 c 2.289,0 4.142,1.856 4.142,4.145 l 0,3.947 -5.588,0 0,-3.082 c 0,-0.916 -1.042,-1.656 -1.842,-1.656 -0.794,0 -1.839,0.74 -1.839,1.656 l 0,15.371 c 0,0.914 1.045,1.658 1.839,1.658 0.8,0 1.842,-0.744 1.842,-1.658 L -5.599,0 0,0 z"
             id="path5501"
             style="fill:#ffffff;fill-opacity:1;fill-rule:evenodd;stroke:none" />
        </g>
        <g
           transform="matrix(1.0013123,0,0,-1,-376.78503,69.413361)"
           id="g5503">
          <path
             d="m 0,0 c 0.671,0 1.612,0.582 1.612,1.301 l 0,10.201 c 0,0.719 -0.941,1.301 -1.612,1.301 -0.668,0 -1.605,-0.582 -1.605,-1.301 l 0,-10.201 C -1.605,0.582 -0.668,0 0,0 m -1.271,-2.723 c 0.784,-0.754 1.846,-1.22 3.02,-1.22 l 0.416,0 c 2.417,0 4.378,1.959 4.378,4.377 l 0,12.41 c 0,2.42 -1.961,4.379 -4.378,4.379 l -0.416,0 c -1.133,0 -2.171,-0.434 -2.945,-1.145 l -0.274,0.004 10e-4,6.026 -5.611,0 0,-25.581 5.332,0 0,0.752 0.477,-0.002 z"
             id="path5505"
             style="fill:#ffffff;fill-opacity:1;fill-rule:evenodd;stroke:none" />
        </g>
        <g
           transform="matrix(1.0013123,0,0,-1,-285.16095,65.852859)"
           id="g5507">
          <path
             d="m 0,0 0,12.846 -5.035,0 0,-19.879 5.035,0 0,0.922 0.18,0 c 0.506,-0.457 0.845,-0.676 1.468,-0.95 0.995,-0.433 1.264,-0.421 2.35,-0.421 l 0,5.459 c 0,0 -0.84,-0.678 -1.916,-0.678 C 0.527,-2.701 0,-1.416 0,0"
             id="path5509"
             style="fill:#ffffff;fill-opacity:1;fill-rule:nonzero;stroke:none" />
        </g>
        <g
           transform="matrix(1.0013123,0,0,-1,-362.55537,68.112549)"
           id="g5511">
          <path
             d="m 0,0 0,10.201 c 0,0.742 0.977,1.301 1.607,1.301 0.631,0 1.614,-0.559 1.614,-1.301 L 3.221,0 C 3.221,-0.742 2.238,-1.301 1.607,-1.301 0.977,-1.301 0,-0.742 0,0 m 0.334,-4.023 c 0.787,-0.754 1.85,-1.223 3.022,-1.223 l 0.416,0 c 2.418,0 4.378,1.961 4.378,4.379 l 0,12.41 c 0,2.418 -1.96,4.379 -4.378,4.379 l -0.416,0 c -1.135,0 -2.172,-0.434 -2.95,-1.145 l -0.273,0.004 0.006,6.027 -5.614,0 0,-25.581 5.334,0 0,0.752 0.475,-0.002 z"
             id="path5513"
             style="fill:#ffffff;fill-opacity:1;fill-rule:evenodd;stroke:none" />
        </g>
        <g
           transform="matrix(1.0013123,0,0,-1,-314.03679,69.413361)"
           id="g5515">
          <path
             d="m 0,0 c 0.635,0 1.613,0.559 1.613,1.301 l 0,10.201 c 0,0.742 -0.978,1.301 -1.613,1.301 -0.631,0 -1.605,-0.559 -1.605,-1.301 l 0,-10.201 C -1.605,0.559 -0.631,0 0,0 m -1.404,15.658 c 0.787,0.758 1.846,1.223 3.021,1.223 l 0.418,0 c 2.416,0 4.379,-1.961 4.379,-4.381 l 0,-12.408 c 0,-2.42 -1.963,-4.379 -4.379,-4.379 l -0.418,0 c -1.134,0 -2.17,0.432 -2.951,1.144 l -0.271,-0.002 0,-6.222 -5.61,0.006 0,25.767 5.336,0 0,-0.748 0.475,0 z"
             id="path5517"
             style="fill:#ffffff;fill-opacity:1;fill-rule:evenodd;stroke:none" />
        </g>
        <g
           transform="matrix(1.0013123,0,0,-1,-273.36659,69.45636)"
           id="g5519">
          <path
             d="m 0,0 c 0.672,0 1.614,0.582 1.614,1.301 l 0,10.201 c 0,0.719 -0.942,1.301 -1.614,1.301 -0.67,0 -1.605,-0.582 -1.605,-1.301 l 0,-10.201 C -1.605,0.582 -0.67,0 0,0 m 1.389,15.264 c -0.816,1.095 -2.145,1.804 -3.615,1.804 -2.545,0 -4.162,-2.011 -4.162,-4.494 l 0,-12.109 c 0,-2.487 1.617,-4.496 4.103,-4.496 1.403,0 2.606,0.588 3.428,1.519 l 0.529,0 -0.002,-0.918 5.608,0 0,22.25 c 0,2.618 -2.327,4.74 -4.944,4.74 l -4.383,0 c -2.613,0 -4.339,-2.122 -4.339,-4.74 l 0,-0.472 4.925,0 0,0.959 c 0,0.847 0.776,1.535 1.483,1.535 0.715,0 1.49,-0.688 1.49,-1.535 l 0,-4.043 -0.121,0 z"
             id="path5521"
             style="fill:#ffffff;fill-opacity:1;fill-rule:evenodd;stroke:none" />
        </g>
        <g
           transform="matrix(1.0013123,0,0,-1,-440.2442,68.262955)"
           id="g5523">
          <path
             d="m 0,0 c 0,1.045 0.73,1.65 1.513,2.512 0,0 2.231,-1.074 2.231,-2.512 0,-1.072 -1.221,-1.48 -1.794,-1.48 C 1.147,-1.48 0,-1.045 0,0 m 0.575,6.764 c -1.258,0.838 -2.246,1.504 -2.207,3.047 0.041,1.539 1.595,2.412 2.762,2.412 1.039,0 1.967,-0.6 2.976,-1.588 L 0.575,6.764 z m 8.567,3.658 4.371,4.808 -5.104,0 -1.791,-1.951 C 5.019,15.17 3.153,15.801 0.773,15.801 -2.104,15.801 -5.87,14 -5.87,9.977 c 0,-2.579 1.562,-4.76 3.944,-5.69 -1.259,-1.412 -2,-2.549 -2,-4.521 0,-3.055 2.745,-4.909 5.745,-4.909 2.973,0 5.841,1.61 5.841,4.741 0,2.453 -1.687,4.252 -3.65,5.267 L 6.539,7.59 8.54,4.535 l 4.621,0 -4.019,5.887 z"
             id="path5525"
             style="fill:#ffffff;fill-opacity:1;fill-rule:nonzero;stroke:none" />
        </g>
      </g>
    </g>
    <g
       transform="matrix(2.8324059,0,0,2.8286938,-423.27805,138.64199)"
       id="g5527">
      <path
         d="m 149.44197,275.21901 283.15306,0 0,47.81299 -283.15306,0 z"
         id="path5529"
         style="fill:#071d39;fill-opacity:1;fill-rule:nonzero;stroke:none" />
    </g>
    <g
       transform="matrix(2.8286938,0,0,-2.8286938,-701.51464,1172.6074)"
       id="g5531">
      <g
         clip-path="url(#clipPath5535)"
         id="g5533">
        <g
           transform="matrix(1.0013123,0,0,-1,289.92166,68.36058)"
           id="g5539">
          <path
             d="m 0,0 c 0,-0.65 0.528,-1.184 1.18,-1.184 l 1.04,0 c 0.651,0 1.183,0.534 1.183,1.184 l 0,4.111 L 0,4.111 0,0 z m -0.861,-4.525 c -2.348,0 -4.258,1.91 -4.258,4.261 l 0,11.358 c 0,2.347 1.91,4.259 4.258,4.259 l 5.15,0 c 2.349,0 4.26,-1.912 4.26,-4.259 l 0,-1.668 -5.146,0 0,1.277 c 0,0.652 -0.532,1.184 -1.183,1.184 l -1.04,0 C 0.528,11.887 0,11.355 0,10.703 l 0,-3.924 8.549,0 0,-7.043 c 0,-2.351 -1.911,-4.261 -4.26,-4.261 l -5.15,0 z"
             id="path5541"
             style="fill:#ffffff;fill-opacity:1;fill-rule:evenodd;stroke:none" />
        </g>
        <g
           transform="matrix(1.0013123,0,0,-1,305.71736,68.36058)"
           id="g5543">
          <path
             d="m 0,0 c 0,-0.65 0.53,-1.184 1.182,-1.184 l 1.04,0 c 0.652,0 1.182,0.534 1.182,1.184 l 0,4.111 L 0,4.111 0,0 z m -0.859,-4.525 c -2.347,0 -4.259,1.91 -4.259,4.261 l 0,11.358 c 0,2.347 1.912,4.259 4.259,4.259 l 5.149,0 c 2.35,0 4.26,-1.912 4.26,-4.259 l 0,-1.668 -5.146,0 0,1.277 c 0,0.652 -0.53,1.184 -1.182,1.184 l -1.04,0 C 0.53,11.887 0,11.355 0,10.703 l 0,-3.924 8.55,0 0,-7.043 c 0,-2.351 -1.91,-4.261 -4.26,-4.261 l -5.149,0 z"
             id="path5545"
             style="fill:#ffffff;fill-opacity:1;fill-rule:evenodd;stroke:none" />
        </g>
        <g
           transform="matrix(1.0013123,0,0,-1,432.37537,68.36058)"
           id="g5547">
          <path
             d="m 0,0 c 0,-0.65 0.529,-1.184 1.182,-1.184 l 1.041,0 c 0.652,0 1.181,0.534 1.181,1.184 l 0,4.111 L 0,4.111 0,0 z m -0.858,-4.525 c -2.349,0 -4.255,1.91 -4.255,4.261 l 0,11.358 c 0,2.347 1.906,4.259 4.255,4.259 l 5.151,0 c 2.346,0 4.258,-1.912 4.258,-4.259 l 0,-1.668 -5.147,0 0,1.277 c 0,0.652 -0.529,1.184 -1.181,1.184 l -1.041,0 C 0.529,11.887 0,11.355 0,10.703 l 0,-3.924 8.551,0 0,-7.043 c 0,-2.351 -1.912,-4.261 -4.258,-4.261 l -5.151,0 z"
             id="path5549"
             style="fill:#ffffff;fill-opacity:1;fill-rule:evenodd;stroke:none" />
        </g>
        <g
           transform="matrix(1.0013123,0,0,-1,275.86525,62.321487)"
           id="g5551">
          <path
             d="m 0,0 c 0.719,0 1.304,-0.588 1.304,-1.309 l 0,-10.498 c 0,-0.722 -0.585,-1.308 -1.304,-1.308 l -1.954,0.004 0,13.107 L 0,0 z m -1.954,2.83 0,6.479 -5.828,0 0,-25.768 9.953,0 c 2.608,0 4.724,2.113 4.724,4.723 l 0,9.84 c 0,2.609 -2.116,4.724 -4.723,4.724 L -1.954,2.83 z"
             id="path5553"
             style="fill:#ffffff;fill-opacity:1;fill-rule:evenodd;stroke:none" />
        </g>
        <g
           transform="matrix(1.0013123,0,0,-1,316.48347,78.774689)"
           id="g5555">
          <path
             d="m 0,0 0,25.768 5.342,0 0,-9.17 0.14,-0.004 3.611,9.174 5.729,0 -4.24,-10.932 0,-0.248 3.837,-8.699 -5.634,0 -3.303,7.851 -0.14,0 L 5.342,0 0,0 z"
             id="path5557"
             style="fill:#ffffff;fill-opacity:1;fill-rule:nonzero;stroke:none" />
        </g>
        <g
           transform="matrix(1.0013123,0,0,-1,387.26424,69.573486)"
           id="g5559">
          <path
             d="m 0,0 c 0.653,0 1.185,0.531 1.185,1.189 l 0,10.567 c 0,0.656 -0.532,1.187 -1.185,1.187 l -1.148,0 c -0.654,0 -1.184,-0.531 -1.184,-1.187 l 0,-10.567 C -2.332,0.531 -1.802,0 -1.148,0 L 0,0 z m -3.166,-3.312 4.911,0 c 2.483,0 4.493,2.005 4.493,4.482 l 0,10.912 c 0,2.475 -2.01,4.484 -4.493,4.484 l -4.911,0 c -2.483,0 -4.498,-2.009 -4.498,-4.484 l 0,-10.912 c 0,-2.477 2.015,-4.482 4.498,-4.482"
             id="path5561"
             style="fill:#ffffff;fill-opacity:1;fill-rule:evenodd;stroke:none" />
        </g>
        <g
           transform="matrix(1.0013123,0,0,-1,451.51144,73.509094)"
           id="g5563">
          <path
             d="m 0,0 c -1.127,0 -2.199,0.436 -3.021,1.225 l -0.352,0 0,-0.602 -5.139,0 0,19.879 5.17,0 -0.007,-15.254 c 0,-0.717 0.546,-1.303 1.212,-1.303 l 0.397,0 c 0.668,0 1.213,0.586 1.213,1.303 l 0,15.254 5.32,0 0,-16.121 C 4.793,1.965 2.83,0 0.416,0 L 0,0 z"
             id="path5565"
             style="fill:#ffffff;fill-opacity:1;fill-rule:evenodd;stroke:none" />
        </g>
        <g
           transform="matrix(1.0013123,0,0,-1,473.80066,72.885986)"
           id="g5567">
          <path
             d="M 0,0 0,16.123 C 0,18.539 1.963,20.5 4.379,20.5 l 0.416,0 c 1.174,0 2.234,-0.467 3.019,-1.223 l 0.354,0 0,0.602 5.139,0 0,-19.879 -5.17,0 0.004,15.25 c 0,0.723 -0.545,1.305 -1.211,1.305 l -0.395,0 c -0.672,0 -1.213,-0.582 -1.213,-1.305 L 5.322,0 0,0 z"
             id="path5569"
             style="fill:#ffffff;fill-opacity:1;fill-rule:evenodd;stroke:none" />
        </g>
        <g
           transform="matrix(1.0013123,0,0,-1,372.08435,78.774689)"
           id="g5571">
          <path
             d="M 0,0 5.391,0 5.387,25.768 0,25.768 0,0 z"
             id="path5573"
             style="fill:#ffffff;fill-opacity:1;fill-rule:nonzero;stroke:none" />
        </g>
        <g
           transform="matrix(1.0013123,0,0,-1,369.86143,61.182892)"
           id="g5575">
          <path
             d="m 0,0 -0.011,4.033 c 0,2.287 -1.853,4.143 -4.142,4.143 l -6.412,0 c -2.288,0 -4.141,-1.856 -4.141,-4.143 l 0,-17.478 c 0,-2.289 1.853,-4.145 4.141,-4.145 l 6.412,0 c 2.289,0 4.142,1.856 4.142,4.145 l 0,3.947 -5.588,0 0,-3.082 c 0,-0.916 -1.042,-1.656 -1.842,-1.656 -0.794,0 -1.839,0.74 -1.839,1.656 l 0,15.371 c 0,0.914 1.045,1.658 1.839,1.658 0.8,0 1.842,-0.744 1.842,-1.658 L -5.599,0 0,0 z"
             id="path5577"
             style="fill:#ffffff;fill-opacity:1;fill-rule:evenodd;stroke:none" />
        </g>
        <g
           transform="matrix(1.0013123,0,0,-1,402.74252,69.413284)"
           id="g5579">
          <path
             d="m 0,0 c 0.671,0 1.612,0.582 1.612,1.301 l 0,10.201 c 0,0.719 -0.941,1.301 -1.612,1.301 -0.668,0 -1.605,-0.582 -1.605,-1.301 l 0,-10.201 C -1.605,0.582 -0.668,0 0,0 m -1.271,-2.723 c 0.784,-0.754 1.846,-1.22 3.02,-1.22 l 0.416,0 c 2.417,0 4.378,1.959 4.378,4.377 l 0,12.41 c 0,2.42 -1.961,4.379 -4.378,4.379 l -0.416,0 c -1.133,0 -2.171,-0.434 -2.945,-1.145 l -0.274,0.004 10e-4,6.026 -5.611,0 0,-25.581 5.332,0 0,0.752 0.477,-0.002 z"
             id="path5581"
             style="fill:#ffffff;fill-opacity:1;fill-rule:evenodd;stroke:none" />
        </g>
        <g
           transform="matrix(1.0013123,0,0,-1,494.36661,65.85289)"
           id="g5583">
          <path
             d="m 0,0 0,12.846 -5.035,0 0,-19.879 5.035,0 0,0.922 0.18,0 c 0.506,-0.457 0.845,-0.676 1.468,-0.95 0.995,-0.433 1.264,-0.421 2.35,-0.421 l 0,5.459 c 0,0 -0.84,-0.678 -1.916,-0.678 C 0.527,-2.701 0,-1.416 0,0"
             id="path5585"
             style="fill:#ffffff;fill-opacity:1;fill-rule:nonzero;stroke:none" />
        </g>
        <g
           transform="matrix(1.0013123,0,0,-1,416.97218,68.112595)"
           id="g5587">
          <path
             d="m 0,0 0,10.201 c 0,0.742 0.977,1.301 1.607,1.301 0.631,0 1.614,-0.559 1.614,-1.301 L 3.221,0 C 3.221,-0.742 2.238,-1.301 1.607,-1.301 0.977,-1.301 0,-0.742 0,0 m 0.334,-4.023 c 0.787,-0.754 1.85,-1.223 3.022,-1.223 l 0.416,0 c 2.418,0 4.378,1.961 4.378,4.379 l 0,12.41 c 0,2.418 -1.96,4.379 -4.378,4.379 l -0.416,0 c -1.135,0 -2.172,-0.434 -2.95,-1.145 l -0.273,0.004 0.006,6.027 -5.614,0 0,-25.581 5.334,0 0,0.752 0.475,-0.002 z"
             id="path5589"
             style="fill:#ffffff;fill-opacity:1;fill-rule:evenodd;stroke:none" />
        </g>
        <g
           transform="matrix(1.0013123,0,0,-1,465.49077,69.413284)"
           id="g5591">
          <path
             d="m 0,0 c 0.635,0 1.613,0.559 1.613,1.301 l 0,10.201 c 0,0.742 -0.978,1.301 -1.613,1.301 -0.631,0 -1.605,-0.559 -1.605,-1.301 l 0,-10.201 C -1.605,0.559 -0.631,0 0,0 m -1.404,15.658 c 0.787,0.758 1.846,1.223 3.021,1.223 l 0.418,0 c 2.416,0 4.379,-1.961 4.379,-4.381 l 0,-12.408 c 0,-2.42 -1.963,-4.379 -4.379,-4.379 l -0.418,0 c -1.134,0 -2.17,0.432 -2.951,1.144 l -0.271,-0.002 0,-6.222 -5.61,0.006 0,25.767 5.336,0 0,-0.748 0.475,0 z"
             id="path5593"
             style="fill:#ffffff;fill-opacity:1;fill-rule:evenodd;stroke:none" />
        </g>
        <g
           transform="matrix(1.0013123,0,0,-1,506.16097,69.456284)"
           id="g5595">
          <path
             d="m 0,0 c 0.672,0 1.614,0.582 1.614,1.301 l 0,10.201 c 0,0.719 -0.942,1.301 -1.614,1.301 -0.67,0 -1.605,-0.582 -1.605,-1.301 l 0,-10.201 C -1.605,0.582 -0.67,0 0,0 m 1.389,15.264 c -0.816,1.095 -2.145,1.804 -3.615,1.804 -2.545,0 -4.162,-2.011 -4.162,-4.494 l 0,-12.109 c 0,-2.487 1.617,-4.496 4.103,-4.496 1.403,0 2.606,0.588 3.428,1.519 l 0.529,0 -0.002,-0.918 5.608,0 0,22.25 c 0,2.618 -2.327,4.74 -4.944,4.74 l -4.383,0 c -2.613,0 -4.339,-2.122 -4.339,-4.74 l 0,-0.472 4.925,0 0,0.959 c 0,0.847 0.776,1.535 1.483,1.535 0.715,0 1.49,-0.688 1.49,-1.535 l 0,-4.043 -0.121,0 z"
             id="path5597"
             style="fill:#ffffff;fill-opacity:1;fill-rule:evenodd;stroke:none" />
        </g>
        <g
           transform="matrix(1.0013123,0,0,-1,339.28336,68.262985)"
           id="g5599">
          <path
             d="m 0,0 c 0,1.045 0.73,1.65 1.513,2.512 0,0 2.231,-1.074 2.231,-2.512 0,-1.072 -1.221,-1.48 -1.794,-1.48 C 1.147,-1.48 0,-1.045 0,0 m 0.575,6.764 c -1.258,0.838 -2.246,1.504 -2.207,3.047 0.041,1.539 1.595,2.412 2.762,2.412 1.039,0 1.967,-0.6 2.976,-1.588 L 0.575,6.764 z m 8.567,3.658 4.371,4.808 -5.104,0 -1.791,-1.951 C 5.019,15.17 3.153,15.801 0.773,15.801 -2.104,15.801 -5.87,14 -5.87,9.977 c 0,-2.579 1.562,-4.76 3.944,-5.69 -1.259,-1.412 -2,-2.549 -2,-4.521 0,-3.055 2.745,-4.909 5.745,-4.909 2.973,0 5.841,1.61 5.841,4.741 0,2.453 -1.687,4.252 -3.65,5.267 L 6.539,7.59 8.54,4.535 l 4.621,0 -4.019,5.887 z"
             id="path5601"
             style="fill:#ffffff;fill-opacity:1;fill-rule:nonzero;stroke:none" />
        </g>
      </g>
    </g>
  </g>
</svg>
