<?xml version="1.0" encoding="UTF-8" standalone="no"?>
<svg
   xmlns:dc="http://purl.org/dc/elements/1.1/"
   xmlns:cc="http://creativecommons.org/ns#"
   xmlns:rdf="http://www.w3.org/1999/02/22-rdf-syntax-ns#"
   xmlns:svg="http://www.w3.org/2000/svg"
   xmlns="http://www.w3.org/2000/svg"
   xmlns:sodipodi="http://sodipodi.sourceforge.net/DTD/sodipodi-0.dtd"
   xmlns:inkscape="http://www.inkscape.org/namespaces/inkscape"
   version="1.1"
   id="Layer_1"
   x="0px"
   y="0px"
   width="573.19128"
   height="200.82571"
   viewBox="0 0 573.19128 200.82571"
   enable-background="new 0 0 3508 2174"
   xml:space="preserve"
   sodipodi:docname="LogoTevaHeb.svg"
   inkscape:version="0.92.3 (2405546, 2018-03-11)"><metadata
   id="metadata8"><rdf:RDF><cc:Work
       rdf:about=""><dc:format>image/svg+xml</dc:format><dc:type
         rdf:resource="http://purl.org/dc/dcmitype/StillImage" /><dc:title></dc:title></cc:Work></rdf:RDF></metadata><defs
   id="defs6" /><sodipodi:namedview
   pagecolor="#ffffff"
   bordercolor="#666666"
   borderopacity="1"
   objecttolerance="10"
   gridtolerance="10"
   guidetolerance="10"
   inkscape:pageopacity="0"
   inkscape:pageshadow="2"
   inkscape:window-width="1920"
   inkscape:window-height="1005"
   id="namedview4"
   showgrid="false"
   fit-margin-top="0"
   fit-margin-left="0"
   fit-margin-right="0"
   fit-margin-bottom="0"
   inkscape:zoom="0.49048621"
   inkscape:cx="559.1054"
   inkscape:cy="82.678028"
   inkscape:window-x="-9"
   inkscape:window-y="-9"
   inkscape:window-maximized="1"
   inkscape:current-layer="Layer_1" />  
<g
   transform="matrix(5.6439462,0,0,-5.6439462,-4047.8354,333.10683)"
   id="g257"><path
     d="m 811.6781,50.7767 v -1.503 c -2.177,1.753 -4.877,2.678 -7.822,2.678 -7.453,0 -13.291,-6.274 -13.291,-14.285 0,-3.576 1.23,-6.984 3.462,-9.597 2.466,-2.9 6.286,-4.632 10.218,-4.632 2.819,0 5.318,0.9 7.433,2.675 v -1.5 c 0,-0.338 0.272,-0.613 0.606,-0.613 h 5.868 c 0.335,0 0.606,0.275 0.606,0.613 v 26.164 c 0,0.339 -0.271,0.613 -0.606,0.613 h -5.868 c -0.334,0 -0.606,-0.274 -0.606,-0.613 m 0.543,-13.11 c 0,-3.713 -2.822,-7.377 -7.149,-7.377 -4.145,0 -7.149,3.188 -7.149,7.377 0,4.646 3.429,7.405 7.062,7.405 4.508,0 7.236,-3.691 7.236,-7.405"
     style="fill:#204e77;fill-opacity:1;fill-rule:nonzero;stroke:none"
     id="path148"
     inkscape:connector-curvature="0" /><path
     d="m 733.9705,30.0812 c -1.646,0 -2.823,0.509 -3.615,1.502 -0.595,0.746 -0.873,1.743 -0.873,3.383 v 10.105 h 7.584 c 0.32,0 0.579,0.262 0.579,0.586 v 5.192 c 0,0.323 -0.259,0.585 -0.579,0.585 h -7.584 v 6.973 c 0,0.339 -0.272,0.613 -0.606,0.613 h -6.146 c -0.335,0 -0.606,-0.274 -0.606,-0.613 v -6.973 h -4.319 c -0.335,0 -0.606,-0.274 -0.606,-0.613 v -5.137 c 0,-0.338 0.271,-0.613 0.606,-0.613 h 4.319 v -9.439 c 0,-3.856 0.602,-6.305 2.014,-8.189 1.921,-2.591 5.167,-3.961 9.387,-3.961 3.252,0 5.33,0.777 6.452,1.667 0.323,0.257 0.389,0.835 0.198,1.109 -0.156,0.222 -2.663,4.236 -2.663,4.236 -0.227,0.371 -0.708,0.456 -1.113,0.233 -0.547,-0.301 -1.593,-0.646 -2.429,-0.646"
     style="fill:#204e77;fill-opacity:1;fill-rule:nonzero;stroke:none"
     id="path152"
     inkscape:connector-curvature="0" /><path
     d="m 751.8747,51.9962 c -3.779,0 -7.19,-1.522 -9.607,-4.286 -2.304,-2.636 -3.573,-6.187 -3.573,-9.999 0,-8.378 5.831,-14.229 14.18,-14.229 3.672,0 7.285,1.349 9.833,3.601 0.114,0.101 0.248,0.231 0.387,0.371 0.214,0.216 0.239,0.559 0.056,0.803 -0.657,0.875 -2.172,2.893 -2.912,3.878 -0.217,0.29 -0.637,0.327 -0.897,0.075 -0.168,-0.161 -0.368,-0.344 -0.578,-0.516 -1.205,-0.986 -3.156,-2.175 -5.722,-2.175 -3.837,0 -6.788,2.597 -7.203,6.326 h 17.902 c 0.443,0 0.817,0.337 0.861,0.783 0.035,0.348 0.064,0.806 0.064,1.364 0,3.751 -1.274,7.252 -3.587,9.858 -2.373,2.674 -5.641,4.146 -9.204,4.146 m 0,-6.037 c 2.304,0 4.953,-1.771 5.259,-4.639 h -10.959 c 0.346,2.246 2.601,4.639 5.7,4.639"
     style="fill:#204e77;fill-opacity:1;fill-rule:nonzero;stroke:none"
     id="path156"
     inkscape:connector-curvature="0" /><path
     d="m 778.0396,30.4987 0.012,3.915 c 0.003,1.596 0.333,3.379 0.946,5.197 0.696,2.07 1.697,3.828 2.805,5.108 l 1.691,2.191 v -9.154 z"
     style="fill:#269e75;fill-opacity:1;fill-rule:nonzero;stroke:none"
     id="path160"
     inkscape:connector-curvature="0" /><path
     d="m 783.4936,46.9096 3.591,4.653 c 0.29,0.381 0.766,0.514 1.195,0.346 0.429,-0.169 0.714,-0.601 0.71,-1.095 l -0.027,-5.782 -5.469,-7.276 z"
     style="fill:#9fd142;fill-opacity:1;fill-rule:nonzero;stroke:none"
     id="path164"
     inkscape:connector-curvature="0" /><path
     d="m 788.9623,45.0316 -0.016,-3.322 c 0.057,-1.705 -0.227,-3.668 -0.897,-5.658 -0.613,-1.818 -1.413,-3.416 -2.361,-4.641 l -2.195,-2.855 v 9.2 z"
     style="fill:#35786e;fill-opacity:1;fill-rule:nonzero;stroke:none"
     id="path168"
     inkscape:connector-curvature="0" /><path
     d="m 783.4936,37.7555 v -9.2 l -3.566,-4.64 c -0.29,-0.381 -0.767,-0.514 -1.196,-0.346 -0.428,0.169 -0.714,0.602 -0.71,1.095 l 0.018,5.834 z"
     style="fill:#204e77;fill-opacity:1;fill-rule:nonzero;stroke:none"
     id="path172"
     inkscape:connector-curvature="0" /><path
     d="m 777.2664,30.4987 -0.012,3.915 c -0.003,1.596 -0.333,3.379 -0.946,5.197 -0.696,2.07 -1.697,3.828 -2.805,5.108 l -1.691,2.191 v -9.154 z"
     style="fill:#269e75;fill-opacity:1;fill-rule:nonzero;stroke:none"
     id="path176"
     inkscape:connector-curvature="0" /><path
     d="m 771.8122,46.9096 -3.591,4.653 c -0.29,0.381 -0.766,0.514 -1.195,0.346 -0.428,-0.169 -0.714,-0.601 -0.71,-1.095 l 0.028,-5.782 5.468,-7.276 z"
     style="fill:#9fd142;fill-opacity:1;fill-rule:nonzero;stroke:none"
     id="path180"
     inkscape:connector-curvature="0" /><path
     d="m 766.3437,45.0316 0.016,-3.322 c -0.057,-1.705 0.226,-3.668 0.897,-5.658 0.613,-1.818 1.413,-3.416 2.361,-4.641 l 2.194,-2.855 v 9.2 z"
     style="fill:#35786e;fill-opacity:1;fill-rule:nonzero;stroke:none"
     id="path184"
     inkscape:connector-curvature="0" /><path
     d="m 771.8122,37.7555 v -9.2 l 3.566,-4.64 c 0.29,-0.381 0.767,-0.514 1.196,-0.346 0.428,0.169 0.714,0.602 0.71,1.095 l -0.018,5.834 z"
     style="fill:#204e77;fill-opacity:1;fill-rule:nonzero;stroke:none"
     id="path188"
     inkscape:connector-curvature="0" /></g></svg>